<svg xmlns="http://www.w3.org/2000/svg" xmlns:xlink="http://www.w3.org/1999/xlink" width="423" height="309" version="1.1" viewBox="0 0 423 309"><title>header-left-overlay</title><desc>Created with Sketch.</desc><defs><linearGradient id="linearGradient-1" x1="38.161%" x2="53.219%" y1="43.99%" y2="47.95%"><stop offset="0%" stop-color="#000" stop-opacity="0"/><stop offset="100%" stop-color="#000" stop-opacity=".181"/></linearGradient><path id="path-2" d="M423,-1.70530257e-13 C282,-1.70530257e-13 211.5,51.5 211.5,154.5 C211.5,257.5 141,309 -8.38440428e-13,309 C-141,309 -141,206 -8.38440428e-13,-1.70530257e-13 C423,-1.70530257e-13 564,-1.70530257e-13 423,-1.70530257e-13 Z"/><filter id="filter-3" width="112.9%" height="124.3%" x="-6.4%" y="-12.1%" filterUnits="objectBoundingBox"><feOffset dx="0" dy="0" in="SourceAlpha" result="shadowOffsetOuter1"/><feGaussianBlur in="shadowOffsetOuter1" result="shadowBlurOuter1" stdDeviation="12.5"/><feComposite in="shadowBlurOuter1" in2="SourceAlpha" operator="out" result="shadowBlurOuter1"/><feColorMatrix in="shadowBlurOuter1" type="matrix" values="0 0 0 0 0 0 0 0 0 0 0 0 0 0 0 0 0 0 0.145241477 0"/></filter><linearGradient id="linearGradient-4" x1="50%" x2="62.504%" y1="50%" y2="55.644%"><stop offset="0%" stop-color="#FFF" stop-opacity=".075"/><stop offset="100%" stop-color="#FFF" stop-opacity="0"/></linearGradient></defs><g id="Page-1" fill="none" fill-rule="evenodd" stroke="none" stroke-width="1"><g id="Artboard"><g id="Path-2"><use fill="#000" fill-opacity="1" filter="url(#filter-3)" xlink:href="#path-2"/><use fill="url(#linearGradient-1)" fill-rule="evenodd" xlink:href="#path-2"/></g><path id="Path-3" fill="url(#linearGradient-4)" d="M423,0 C282,0 211.5,51.5 211.5,154.5 C211.5,257.5 141,309 2.72848411e-12,309 L423,309 L423,0 Z"/></g></g></svg>